<svg width="58" height="75" viewBox="0 0 58 75" fill="none" xmlns="http://www.w3.org/2000/svg">
<path d="M41.5733 40.9716V32.1336C41.5733 31.9787 41.5119 31.83 41.4026 31.7204C41.2933 31.6108 41.1451 31.5493 40.9906 31.5493H36.6496L36.6375 24.0833C36.6377 23.999 36.6213 23.9155 36.5891 23.8375C36.557 23.7596 36.5098 23.6888 36.4503 23.6293C36.3907 23.5697 36.3201 23.5225 36.2423 23.4905C36.1645 23.4584 36.0812 23.4421 35.9971 23.4424L31.6199 23.4491C31.4503 23.4495 31.2877 23.5173 31.1679 23.6377C31.0481 23.7581 30.9808 23.9213 30.9808 24.0914L30.9929 31.552H26.237L26.225 24.0995C26.2246 23.9294 26.157 23.7664 26.0369 23.6462C25.9168 23.5261 25.7541 23.4586 25.5845 23.4586L21.2073 23.4653C21.0376 23.466 20.875 23.5341 20.7552 23.6548C20.6354 23.7754 20.5682 23.9387 20.5682 24.1089L20.5803 31.5533H16.2555C16.1788 31.5531 16.1029 31.5681 16.032 31.5974C15.9612 31.6267 15.8968 31.6697 15.8425 31.724C15.7883 31.7783 15.7452 31.8428 15.7159 31.9137C15.6865 31.9847 15.6714 32.0608 15.6714 32.1377V40.9756C15.6792 43.8497 16.6989 46.6287 18.5506 48.8223C20.4024 51.016 22.9672 52.4833 25.7926 52.9656V72.1709C25.7926 73.7334 27.0592 75 28.6217 75C30.1841 75 31.4507 73.7334 31.4507 72.1709V52.9737C34.2797 52.4939 36.8481 51.0256 38.7011 48.8289C40.5541 46.6322 41.572 43.8488 41.5746 40.9716H41.5733ZM34.0152 45.5629C33.4107 46.1697 32.6924 46.6507 31.9018 46.9781C31.1112 47.3055 30.2639 47.473 29.4085 47.4708H27.8375C26.1164 47.4737 24.4644 46.7919 23.2439 45.5751C22.0233 44.3582 21.3339 42.7056 21.3268 40.9797V37.2299H35.9165V40.9743C35.9185 41.8273 35.7514 42.6722 35.425 43.4599C35.0986 44.2476 34.6194 44.9625 34.0152 45.5629Z" fill="url(#paint0_linear_108_235)"/>
<path d="M55.4079 29.0737C54.126 25.9 52.2188 23.0183 49.8006 20.6011L29.6927 0.435274C29.4145 0.156562 29.0374 0 28.6443 0C28.2511 0 27.874 0.156562 27.5958 0.435274L7.49061 20.6011C5.11616 22.9772 3.23233 25.7997 1.94698 28.9071C0.661641 32.0144 0 35.3455 0 38.7096C0 42.0737 0.661641 45.4048 1.94698 48.5122C3.23233 51.6195 5.11616 54.442 7.49061 56.8182L19.3763 68.7375C19.44 68.801 19.521 68.8442 19.6092 68.8616C19.6973 68.879 19.7887 68.8699 19.8716 68.8353C19.9546 68.8008 20.0255 68.7423 20.0755 68.6674C20.1254 68.5925 20.1521 68.5045 20.1522 68.4144V62.1242C20.1525 61.9242 20.1136 61.7262 20.0376 61.5414C19.9616 61.3566 19.85 61.1886 19.7092 61.0471L11.5823 52.8908C7.82214 49.139 5.69815 44.0453 5.67567 38.7258C5.66536 36.1051 6.1741 33.5084 7.17238 31.0865C8.17066 28.6646 9.63857 26.4656 11.491 24.6173L28.6456 7.41077L45.8016 24.6173C53.55 32.3884 53.55 45.0335 45.8016 52.8047L37.5834 61.0471C37.2993 61.3331 37.14 61.7205 37.1404 62.1242V68.4144C37.1405 68.5045 37.1672 68.5925 37.2171 68.6674C37.2671 68.7423 37.338 68.8008 37.4209 68.8353C37.5039 68.8699 37.5952 68.879 37.6834 68.8616C37.7715 68.8442 37.8526 68.801 37.9163 68.7375L49.802 56.8182C53.3487 53.2581 55.7717 48.7295 56.7689 43.7973C57.7661 38.8651 57.2932 33.7476 55.4092 29.0831L55.4079 29.0737Z" fill="url(#paint1_linear_108_235)"/>
<defs>
<linearGradient id="paint0_linear_108_235" x1="1.62816" y1="82.9884" x2="40.7966" y2="29.4947" gradientUnits="userSpaceOnUse">
<stop stop-color="#11578A"/>
<stop offset="1" stop-color="#44CFED"/>
</linearGradient>
<linearGradient id="paint1_linear_108_235" x1="-1.77203" y1="80.4885" x2="37.3962" y2="27.0023" gradientUnits="userSpaceOnUse">
<stop stop-color="#118A8A"/>
<stop offset="1" stop-color="#44EDA6"/>
</linearGradient>
</defs>
</svg>
